<?xml version="1.0" encoding="UTF-8" standalone="no"?>
<!-- Created with Inkscape (http://www.inkscape.org/) -->

<svg
   xmlns:dc="http://purl.org/dc/elements/1.1/"
   xmlns:cc="http://creativecommons.org/ns#"
   xmlns:rdf="http://www.w3.org/1999/02/22-rdf-syntax-ns#"
   xmlns:svg="http://www.w3.org/2000/svg"
   xmlns="http://www.w3.org/2000/svg"
   xmlns:sodipodi="http://sodipodi.sourceforge.net/DTD/sodipodi-0.dtd"
   xmlns:inkscape="http://www.inkscape.org/namespaces/inkscape"
   version="1.2"
   width="100%"
   height="100%"
   viewBox="0 0 400 400"
   id="Layer_1"
   xml:space="preserve"
   inkscape:version="0.48.4 r9939"
   sodipodi:docname="icon_missing.svg"><sodipodi:namedview
     pagecolor="#ffffff"
     bordercolor="#666666"
     borderopacity="1"
     objecttolerance="10"
     gridtolerance="10"
     guidetolerance="10"
     inkscape:pageopacity="0"
     inkscape:pageshadow="2"
     inkscape:window-width="640"
     inkscape:window-height="480"
     id="namedview27"
     showgrid="false"
     inkscape:zoom="0.59"
     inkscape:cx="200"
     inkscape:cy="200"
     inkscape:window-x="0"
     inkscape:window-y="25"
     inkscape:window-maximized="0"
     inkscape:current-layer="Layer_1" /><metadata
     id="metadata3079"><rdf:RDF><cc:Work
         rdf:about=""><dc:format>image/svg+xml</dc:format><dc:type
           rdf:resource="http://purl.org/dc/dcmitype/StillImage" /><dc:title /></cc:Work></rdf:RDF></metadata><defs
     id="defs3077" /><g
     transform="translate(0,1.3329999)"
     id="Layer_7"
     style="display:none"><g
       id="g4"
       style="display:inline"><path
         d="m 81.984,71.004 h 33.076 l 42.445,165.935 c 5.829,23.278 10.082,44.35 12.758,63.213 3.279,-22.418 8.137,-44.35 14.579,-65.787 l 47.737,-163.36 h 32.802 l 50.611,165.089 c 5.947,18.916 10.974,40.27 15.065,64.061 2.355,-17.392 6.816,-38.589 13.387,-63.578 L 387.213,71.006 h 33.076 l -71.85,268.657 H 317.565 L 264.158,159.519 c -2.361,-7.982 -5.326,-17.987 -8.897,-30.021 -3.565,-12.034 -5.424,-19.282 -5.537,-21.74 -2.692,16.171 -6.974,33.876 -12.851,53.108 L 184.379,339.667 H 153.545 L 81.984,71.004 z"
         id="path6" /></g></g><g
     transform="translate(0,1.3329999)"
     id="Layer_3"
     style="display:none"><g
       id="g9"
       style="display:inline"><path
         d="M 150.803,339.665 V 71.004 h 35.279 l 146.442,224.558 h 1.455 c -0.247,-3.429 -0.792,-14.086 -1.634,-31.971 -0.603,-13.966 -0.91,-24.811 -0.91,-32.519 0,-2.205 0,-4.163 0,-5.868 V 71.02 h 28.854 V 339.677 H 325.005 L 178.182,114.186 h -1.471 c 1.958,26.463 2.939,50.718 2.939,72.771 v 152.708 h -28.847 z"
         id="path11" /></g></g><g
     transform="translate(0,1.3329999)"
     id="Layer_4"
     style="display:none"><g
       id="g14"
       style="display:inline"><path
         d="m 170.766,333.886 v -29.961 c 11.024,4.66 23.029,8.348 36.019,11.037 12.984,2.694 25.847,4.05 38.593,4.05 20.862,0 36.57,-3.952 47.123,-11.874 10.559,-7.918 15.837,-18.916 15.837,-33.047 0,-9.324 -1.871,-16.953 -5.613,-22.913 -3.747,-5.953 -10.008,-11.448 -18.782,-16.474 -8.778,-5.026 -22.12,-10.742 -40.039,-17.121 -25.037,-8.958 -42.857,-19.574 -53.452,-31.845 -10.598,-12.266 -15.897,-28.276 -15.897,-48.037 0,-20.724 7.752,-37.221 23.263,-49.481 15.51,-12.261 36.021,-18.392 61.547,-18.392 26.635,0 51.132,4.9 73.489,14.7 l -9.626,27.221 C 301.081,102.42 279.548,97.76 258.63,97.76 c -16.57,0 -29.523,3.563 -38.848,10.676 -9.323,7.118 -13.986,16.995 -13.986,29.637 0,9.324 1.716,16.963 5.152,22.918 3.434,5.953 9.234,11.411 17.397,16.381 8.161,4.971 20.649,10.46 37.458,16.474 28.229,10.065 47.579,20.863 58.055,32.397 10.475,11.539 15.714,26.511 15.714,44.91 0,23.556 -8.553,41.927 -25.658,55.101 -17.104,13.173 -40.321,19.773 -69.645,19.773 -31.856,0.009 -56.353,-4.042 -73.503,-12.141 l 0,0 z"
         id="path16" /></g></g><g
     transform="translate(0,1.3329999)"
     id="Layer_5"
     style="display:none"><g
       id="g19"
       style="display:inline"><path
         d="m 142.218,71.009 h 33.077 l 61.742,173.833 c 7.105,19.969 12.739,39.391 16.908,58.258 4.41,-19.85 10.157,-39.631 17.271,-59.357 L 332.59,71.006 h 33.623 L 269.369,339.665 H 238.508 L 142.218,71.009 z"
         id="path21" /></g></g><g
     transform="translate(0,1.3329999)"
     id="Layer_6"
     style="display:none"><g
       id="g24"
       style="display:inline"><path
         d="m 154.708,208.841 c 0,-27.668 5.116,-51.908 15.355,-72.721 10.24,-20.811 25.124,-36.85 44.653,-48.113 19.528,-11.26 42.532,-16.895 68.989,-16.895 28.177,0 52.8,5.145 73.868,15.437 l -13.224,26.816 c -20.339,-9.547 -40.676,-14.321 -61.016,-14.321 -29.531,0 -52.84,9.826 -69.918,29.471 -17.09,19.645 -25.634,46.542 -25.634,80.698 0,35.143 8.237,62.273 24.716,81.429 16.476,19.155 39.968,28.731 70.473,28.731 18.745,0 40.121,-3.365 64.129,-10.095 v 27.481 c -18.621,7.031 -41.592,10.545 -68.91,10.545 -39.582,0 -70.045,-12.014 -91.421,-36.037 -21.373,-24.03 -32.06,-58.174 -32.06,-102.426 z"
         id="path26" /></g></g><path
     d="M 91.666,184.647"
     id="path28"
     style="fill:#aa0707" /><path
     d="M 91.666,184.647"
     id="path32"
     style="fill:#aa0707" /><g
     id="g3035"><g
       transform="matrix(13.246552,0,0,13.246552,-1348.185,-477.55299)"
       style="font-size:40px;font-style:normal;font-variant:normal;font-weight:600;font-stretch:normal;text-align:start;line-height:125%;letter-spacing:0px;word-spacing:0px;writing-mode:lr-tb;text-anchor:start;fill:#686868;fill-opacity:1;stroke:none;font-family:FreeSans;-inkscape-font-specification:FreeSans Semi-Bold"
       id="flowRoot3877"><path
         d="m 106.84125,46.72875 c 0.0267,-1.733312 0.25333,-3.253311 0.68,-4.56 0.45333,-1.306642 1,-2.319974 1.64,-3.04 0.66666,-0.746639 1.45333,-1.346638 2.36,-1.8 0.90666,-0.453304 1.74666,-0.746637 2.52,-0.88 0.79999,-0.15997 1.63999,-0.23997 2.52,-0.24 2.93332,3e-5 5.31998,0.853362 7.16,2.56 1.86665,1.706692 2.79998,3.920023 2.8,6.64 -2e-5,1.680019 -0.33336,3.066684 -1,4.16 -0.66669,1.093349 -1.93335,2.293347 -3.8,3.6 -1.20002,0.853345 -1.94668,1.533345 -2.24,2.04 -0.29335,0.506677 -0.44001,1.413343 -0.44,2.72 l -4.96,0 0,-0.56 c -1e-5,-1.333323 0.22666,-2.493322 0.68,-3.48 0.47999,-1.01332 1.05332,-1.826653 1.72,-2.44 0.66665,-0.613318 1.33332,-1.186651 2,-1.72 0.66665,-0.533317 1.22665,-1.146649 1.68,-1.84 0.47998,-0.693315 0.71998,-1.47998 0.72,-2.36 -2e-5,-1.306645 -0.40002,-2.399977 -1.2,-3.28 -0.80001,-0.879975 -1.80001,-1.319975 -3,-1.32 -1.25334,2.5e-5 -2.30668,0.506691 -3.16,1.52 -0.82668,1.013356 -1.24001,2.293355 -1.24,3.84 l 0,0.36 0,0.08 -5.44,0 m 12.84,13.4 0,5.84 -6,0 0,-5.84 6,0"
         style=""
         id="path3005" /></g></g></svg>
