<?xml version="1.0" encoding="UTF-8" standalone="no"?>
<!-- Created with Inkscape (http://www.inkscape.org/) -->

<svg
   xmlns:dc="http://purl.org/dc/elements/1.1/"
   xmlns:cc="http://creativecommons.org/ns#"
   xmlns:rdf="http://www.w3.org/1999/02/22-rdf-syntax-ns#"
   xmlns:svg="http://www.w3.org/2000/svg"
   xmlns="http://www.w3.org/2000/svg"
   xmlns:sodipodi="http://sodipodi.sourceforge.net/DTD/sodipodi-0.dtd"
   xmlns:inkscape="http://www.inkscape.org/namespaces/inkscape"
   width="100%"\
   height="100%"\
   viewBox="0 0 148 86"\
   id="svg2"
   version="1.1"
   inkscape:version="0.48.4 r9939"
   sodipodi:docname="placeholder.svg">
  <defs
     id="defs4" />
  <g
     inkscape:label="Layer 1"
     inkscape:groupmode="layer"
     id="layer1"
     transform="translate(-229.63096,-513.00722)">
    <g
       id="flowRoot2995">
      <path
         d="m 249.2425,542.68722 0,-5.12 c 0,-0.52 -0.24,-0.76 -0.72,-0.76 -0.04,0 -0.08,0 -0.12,0 -1.64,0.16 -3.32,0.36 -5.6,0.36 -2.2,0 -4.12,-1 -4.12,-6.04 l 0,-4.12 c 0,-5.07999 1.96,-6.04 4.12,-6.04 2.28,0 3.96,0.2 5.6,0.36 0.04,0 0.08,0 0.12,0 0.48,0 0.72,-0.24 0.72,-0.76 l 0,-5.12 c 0,-0.56 -0.24,-0.68 -0.88,-0.88 -1.04,-0.36 -3.08,-0.72 -5.6,-0.72 -7.35999,0 -12.32,4.00001 -12.32,13.16 l 0,4.12 c 0,9.15999 4.96001,13.16 12.32,13.16 2.52,0 4.56,-0.36 5.6,-0.72 0.64,-0.2 0.88,-0.36 0.88,-0.88"
         class="theme-app-logo-svg"
         id="path3094" />
      <path
         d="m 260.67,543.04722 0,-29.24 c 0,-0.44 -0.36,-0.8 -0.8,-0.8 l -6.04,0 c -0.44,0 -0.88,0.36 -0.88,0.8 l 0,29.24 c 0,0.44 0.44,0.88 0.88,0.88 l 6.04,0 c 0.44,0 0.8,-0.44 0.8,-0.88"
         class="theme-app-logo-svg"
         id="path3096" />
      <path
         d="m 285.33938,533.56722 0,-2.4 c 0,-6.43999 -3.24001,-10.88 -10.24001,-10.88 -6.55999,0 -10.63999,3.84001 -10.63999,10.88 l 0,2.64 c 0,7.64 5,10.48 10.39999,10.48 3.36,0 6.12001,-0.4 8.68,-1.24 0.64,-0.2 0.80001,-0.48 0.80001,-1.12 l 0,-3.6 c 0,-0.48 -0.28001,-0.68 -0.72001,-0.68 -0.04,0 -0.12,0 -0.15999,0 -1.52,0.16 -5.48001,0.32 -7.60001,0.32 -2.91999,0 -3.8,-1.32 -3.8,-3.44 l 0,-0.08 12.44,0 c 0.48,0 0.84001,-0.36 0.84001,-0.88 m -7.36001,-3.36 -5.92,0 0,-0.12 c 0,-2.39999 1.04001,-3.84 2.96001,-3.84 1.99999,0 2.95999,1.44001 2.95999,3.84 l 0,0.12"
         class="theme-app-logo-svg"
         id="path3098" />
      <path
         d="m 307.92187,543.12722 0,-14.16 c 0,-6.55999 -4.24,-8.64 -10.04,-8.64 -2.55999,0 -6,0.56 -7.32,0.96 -0.47999,0.16 -0.8,0.52 -0.8,0.96 l 0,3.88 c 0,0.48 0.32001,0.8 0.76001,0.8 l 0.12,0 c 1.87999,-0.2 4.4,-0.28 6.95999,-0.28 1.36,0 2.64,0.36001 2.64,2.32 l 0,1.16 -1.71999,0 c -6.68,0 -10.32001,1.72001 -10.32001,6.52 l 0,0.48 c 0,5.4 3.68001,7.16 6.84,7.16 2.2,0 4.20001,-0.88 5.72,-2 l 0,0.84 c 0,0.44 0.36001,0.8 0.8,0.8 l 5.56,0 c 0.44,0 0.8,-0.36 0.8,-0.8 m -7.44,-4.96 c -0.67999,0.32 -1.76,0.6 -2.72,0.6 -1.11999,0 -2.04,-0.4 -2.04,-1.76 l 0,-0.4 c 0,-1.67999 0.80001,-2.32 2.80001,-2.32 l 1.95999,0 0,3.88"
         class="theme-app-logo-svg"
         id="path3100" />
      <path
         d="m 325.61063,525.80722 0,-4.68 c 0,-0.44 -0.36001,-0.8 -0.8,-0.8 l -0.44,0 c -1.68,0 -3.12001,0.20001 -4.92001,2.08 l 0,-0.96 c 0,-0.44 -0.36,-0.8 -0.8,-0.8 l -5.76,0 c -0.43999,0 -0.8,0.36 -0.8,0.8 l 0,21.6 c 0,0.44 0.40001,0.88 0.88,0.88 l 6,0 c 0.48,0 0.8,-0.44 0.8,-0.88 l 0,-15.52 c 1.24,-0.68 2.88001,-0.92 4.60001,-0.92 l 0.56,0 c 0.39999,0 0.68,-0.4 0.68,-0.8"
         class="theme-app-logo-svg"
         id="path3102" />
      <path
         d="m 353.04937,531.12722 0,-4.12 c 0,-9.75999 -5.64,-13.2 -12.27999,-13.2 -6.64,0 -12.28001,3.44001 -12.28001,13.2 l 0,4.12 c 0,9.75999 5.64001,13.16 12.28001,13.16 6.63999,0 12.27999,-3.40001 12.27999,-13.16 m -8.24,0 c 0,4.28 -1.24,6 -4.03999,6 -2.8,0 -4.04001,-1.72 -4.04001,-6 l 0,-4.12 c 0,-4.27999 1.24001,-6.04 4.04001,-6.04 2.79999,0 4.03999,1.76001 4.03999,6.04 l 0,4.12"
         class="theme-app-logo-svg"
         id="path3104" />
      <path
         d="m 377.68875,535.12722 c 0,-3.31999 -1.4,-5.96 -5.28,-8.04 l -5.4,-2.88 c -1.72,-0.92 -2.08,-1.32 -2.08,-2.04 0,-0.84 0.52,-1.36 2,-1.36 2.88,0 7.44,0.4 9.08,0.52 0.04,0 0.04,0 0.08,0 0.44,0 0.72,-0.36 0.72,-0.76 l 0,-5 c 0,-0.44 -0.36,-0.64 -0.72,-0.76 -1.64,-0.48 -5.92,-1 -9.08,-1 -8.07999,0 -10.48,3.60001 -10.48,7.96 0,3.08 1,5.80001 4.76,8 l 5.76,3.4 c 1.48,0.88 1.88,1.32 1.88,2.12 0,1.28 -0.56,2.04 -2.52,2.04 -2.12,0 -6.44,-0.44 -8.12,-0.6 -0.04,0 -0.04,0 -0.08,0 -0.4,0 -0.76,0.28 -0.76,0.8 l 0,4.92 c 0,0.44 0.44,0.68 0.84,0.8 2.12,0.6 4.8,1.04 8.08,1.04 8.23999,0 11.32,-4.68 11.32,-9.16"
         class="theme-app-logo-svg"
         id="path3106" />
    </g>
    <g
       transform="translate(-5.7142857,-45.714286)"
       id="flowRoot3011">
      <path
         d="m 271.96925,643.65836 c 0,-0.056 -0.056,-0.168 -0.056,-0.28 l -7.504,-34.272 c -1.232,-5.54399 -5.43201,-6.664 -10.752,-6.664 -5.31999,0 -9.52,1.12001 -10.752,6.664 l -7.504,34.272 c 0,0.112 -0.056,0.168 -0.056,0.28 0,0.504 0.392,0.896 0.952,0.896 l 9.688,0 c 0.56,0 1.008,-0.504 1.12,-1.064 l 1.568,-7.784 9.968,0 1.568,7.784 c 0.112,0.56 0.56,1.064 1.12,1.064 l 9.744,0 c 0.56,0 0.896,-0.336 0.896,-0.896 m -14.952,-16.912 -6.72,0 2.744,-14.224 c 0.112,-0.504 0.112,-0.784 0.616,-0.784 0.504,0 0.504,0.28 0.616,0.784 l 2.744,14.224"
         class="theme-app-logo-svg"
         id="path3109" />
      <path
         d="m 309.176,616.89036 0,-0.448 c 0,-11.14399 -9.12801,-14.056 -17.472,-14.056 -3.976,0 -9.016,0.28 -11.816,0.728 -2.352,0.392 -3.248,1.00801 -3.248,3.696 l 0,36.736 c 0,0.616 0.56,1.008 1.176,1.008 l 8.96,0 c 0.616,0 1.12,-0.504 1.12,-1.12 l 0,-12.6 c 1.512,0.056 2.744,0.168 3.976,0.168 8.06399,0 17.304,-3.08001 17.304,-14.112 m -11.312,0 c 0,3.136 -2.072,4.648 -5.992,4.648 -0.336,0 -3.696,0 -3.976,-0.056 l 0,-9.52 c 0.336,0 3.584,-0.056 3.976,-0.056 3.752,0 5.992,1.28801 5.992,4.536 l 0,0.448"
         class="theme-app-logo-svg"
         id="path3111" />
      <path
         d="m 347.12912,616.89036 0,-0.448 c 0,-11.14399 -9.128,-14.056 -17.472,-14.056 -3.97599,0 -9.016,0.28 -11.816,0.728 -2.35199,0.392 -3.248,1.00801 -3.248,3.696 l 0,36.736 c 0,0.616 0.56001,1.008 1.176,1.008 l 8.96,0 c 0.616,0 1.12001,-0.504 1.12001,-1.12 l 0,-12.6 c 1.51199,0.056 2.744,0.168 3.976,0.168 8.06399,0 17.30399,-3.08001 17.30399,-14.112 m -11.312,0 c 0,3.136 -2.072,4.648 -5.99199,4.648 -0.336,0 -3.69601,0 -3.976,-0.056 l 0,-9.52 c 0.33599,0 3.584,-0.056 3.976,-0.056 3.75199,0 5.99199,1.28801 5.99199,4.536 l 0,0.448"
         class="theme-app-logo-svg"
         id="path3113" />
      <path
         d="m 380.71425,632.23436 c 0,-4.64799 -1.96001,-8.344 -7.392,-11.256 l -7.56,-4.032 c -2.408,-1.288 -2.912,-1.848 -2.912,-2.856 0,-1.176 0.728,-1.904 2.8,-1.904 4.032,0 10.416,0.56 12.712,0.728 0.056,0 0.056,0 0.112,0 0.616,0 1.008,-0.504 1.008,-1.064 l 0,-7 c 0,-0.616 -0.504,-0.896 -1.008,-1.064 -2.296,-0.672 -8.288,-1.4 -12.712,-1.4 -11.31199,0 -14.672,5.04001 -14.672,11.144 0,4.312 1.40001,8.12001 6.664,11.2 l 8.064,4.76 c 2.072,1.232 2.632,1.848 2.632,2.968 0,1.792 -0.784,2.856 -3.528,2.856 -2.968,0 -9.016,-0.616 -11.368,-0.84 -0.056,0 -0.056,0 -0.112,0 -0.56,0 -1.064,0.392 -1.064,1.12 l 0,6.888 c 0,0.616 0.616,0.952 1.176,1.12 2.968,0.84 6.72,1.456 11.312,1.456 11.53599,0 15.848,-6.552 15.848,-12.824"
         class="theme-app-logo-svg"
         id="path3115" />
    </g>
  </g>
</svg>
